<svg xmlns="http://www.w3.org/2000/svg" width="654.001" height="364.2" viewBox="0 0 654.001 364.2">
  <g id="work-remote" transform="translate(0)">
    <path id="Path_106" data-name="Path 106" d="M682,378.1a103.222,103.222,0,0,1-14.932,53.669c0,19.792-9.227,37.731-24.194,50.805a82.743,82.743,0,0,1-12.051,8.735c-.172.109-.349.212-.526.314-.32.189-.64.377-.966.572l-.3.177h0c-1.366.772-2.761,1.515-4.185,2.212a94.709,94.709,0,0,1-42.167,9.719H152.151q-5.145,0-10.2-.412a120.71,120.71,0,0,1-34.907-8.084q-3.27-1.292-6.414-2.778-1.5-.7-2.967-1.446c-.612-.309-1.223-.629-1.829-.949a108.906,108.906,0,0,1-10.668-6.483,105.125,105.125,0,0,1-9.033-6.929c-19.454-16.693-31.488-39.794-31.488-65.286A103.188,103.188,0,0,1,28,355.521C28,298.844,73.3,252.9,129.187,252.9c1.715,0,3.43.051,5.145.143a5.227,5.227,0,0,1,.732.034,174.342,174.342,0,0,1,37.159-43.8c41.3-35.387,101.656-57.694,168.891-57.694,56.493,0,108.133,15.75,147.688,41.773a99.575,99.575,0,0,1,49.136-12.891c55.876,0,101.187,45.946,101.187,102.622a105.731,105.731,0,0,1-.572,10.736A102.9,102.9,0,0,1,682,378.1Z" transform="translate(-28 -140.101)" fill="#e63946" opacity="0.1"/>
    <path id="Path_107" data-name="Path 107" d="M657.442,355.373v-6.134a22.324,22.324,0,1,0-16.8,0v6.134a31.443,31.443,0,0,0-14.6,8.878,31.488,31.488,0,0,0-17.768-12.874v-6.14a22.324,22.324,0,1,0-16.8,0v6.134a31.442,31.442,0,0,0-13.269,7.523A31.488,31.488,0,0,0,561.4,347.369v-6.134a22.324,22.324,0,1,0-16.8,0v6.134a31.442,31.442,0,0,0-14.864,9.181,31.494,31.494,0,0,0-20.906-18.9v-6.134a22.324,22.324,0,1,0-16.8,0v6.134a31.442,31.442,0,0,0-22.867,27.309,31.225,31.225,0,0,0-9.473-4.442v-6.134a22.324,22.324,0,1,0-16.8,0v6.134a31.545,31.545,0,0,0-19.814,16.407,31.2,31.2,0,0,0-8.575-3.83v-6.134a22.324,22.324,0,1,0-16.8,0v6.134a31.036,31.036,0,0,0-8.124,3.556,31.523,31.523,0,0,0-19.672-16.133v-6.134a22.324,22.324,0,1,0-16.8,0v6.134a31.5,31.5,0,0,0-20.506,17.928,31.443,31.443,0,0,0-10.719-5.351v-6.134a22.324,22.324,0,1,0-16.8,0v6.134a31.442,31.442,0,0,0-23.044,30.3V545.17h62.85V532.593h29.727V545.17h62.885V532.593h45.163V509.726h38.874v9.719h46.878v4H617.6v4h62.885V385.672a31.442,31.442,0,0,0-23.043-30.3Z" transform="translate(-136.819 -198.75)" fill="#e63946" opacity="0.1"/>
    <path id="Path_108" data-name="Path 108" d="M417.845,169h52.269a97.347,97.347,0,0,1,97.351,97.351V398.243H320.5v-131.9A97.345,97.345,0,0,1,417.846,169Z" transform="translate(-137.277 -72.386)" fill="#2f2e41"/>
    <path id="Path_109" data-name="Path 109" d="M427.845,178.28h40.835a97.347,97.347,0,0,1,97.351,97.351V396.907H330.5V275.625a97.346,97.346,0,0,1,97.346-97.346Z" transform="translate(-141.56 -76.361)" opacity="0.2"/>
    <path id="Path_110" data-name="Path 110" d="M667.665,701.071v9.981a94.71,94.71,0,0,1-42.167,9.719H194.984q-5.145,0-10.2-.412a120.71,120.71,0,0,1-34.907-8.084q-3.27-1.292-6.414-2.778-1.5-.7-2.967-1.446c-.612-.309-1.223-.629-1.829-.949A108.9,108.9,0,0,1,128,700.631V673.522A16.522,16.522,0,0,1,144.522,657h475.2a16.521,16.521,0,0,1,10.862,4.1l31.442,27.555A16.5,16.5,0,0,1,667.665,701.071Z" transform="translate(-70.832 -356.583)" fill="#2f2e41"/>
    <path id="Path_111" data-name="Path 111" d="M412.144,353.57q-18.7,1.235-37.256,4a35.284,35.284,0,0,0-10.29,2.664,30.185,30.185,0,0,0-6.826,4.894,89.971,89.971,0,0,0-21.724,29.459c-3.184,6.946-5.471,14.292-8.472,21.295-10.685,25.011-30.065,45.466-41.344,70.214a61.407,61.407,0,0,0-5.317,16.773c-.846,6.026.114,13.057,5.065,16.579a20.473,20.473,0,0,0,7.786,2.858,938.408,938.408,0,0,0,103.8,16.95c-3.779-3.647-5.042-9.3-4.545-14.526s2.55-10.164,4.573-15.007Q367.976,503.19,338.506,496c-2.933-.715-6.454-2.058-6.814-5.054a7.469,7.469,0,0,1,1.315-4.339,232.77,232.77,0,0,1,29.956-42.3c0,16.041-.795,34.158-.795,50.2H547.449a141.778,141.778,0,0,1-3.91-27.927c-.863-30.734,9.484-61.233,6.8-91.9-.252-2.83-.64-5.745-2.121-8.169-2.555-4.185-7.655-5.917-12.343-7.346-17.974-5.465-36.324-10.993-55.11-10.565-5.585.131-11.148.783-16.7,1.441C447.148,352.038,429.14,352.444,412.144,353.57Z" transform="translate(-136.212 -224.48)" fill="#e63946"/>
    <path id="Path_112" data-name="Path 112" d="M358.835,675.186l13.492,43.179a1.349,1.349,0,0,0,1.286.943h57.894L417.786,669l-57.774,4.442a1.349,1.349,0,0,0-1.178,1.744Z" transform="translate(-169.678 -361.723)" fill="#656478"/>
    <path id="Path_113" data-name="Path 113" d="M501.247,373.127a25.029,25.029,0,0,1-8.307,2.464l-18.448,3.2c-3.59.623-7.369,1.332-10.136,3.7-5.66,4.842-4.436,13.755-2.721,21l3.43,14.544c2.584,10.93,5.225,21.992,10.525,31.894,9.255,17.282,26.234,29.727,44.905,35.724,6.671,2.144,13.72,3.539,20.683,2.773,13.64-1.5,25.308-11.222,32.5-22.913s10.616-25.251,13.755-38.617c3.013-12.794,5.877-25.771,5.682-38.92-.057-4.093-.469-8.369-2.653-11.839-4.785-7.62-15.63-8.192-24.519-6.786a9.1,9.1,0,0,1-4.15.046c-4-1.246-4.093-6.74-5.808-10.553-3.241-7.192-12.857-8.467-20.718-7.815s-20.1,1.492-26.949,5.945C501.733,361.242,508.97,368.674,501.247,373.127Z" transform="translate(-213.121 -225.468)" fill="#fbbebe"/>
    <path id="Path_114" data-name="Path 114" d="M501.247,373.127a25.029,25.029,0,0,1-8.307,2.464l-18.448,3.2c-3.59.623-7.369,1.332-10.136,3.7-5.66,4.842-4.436,13.755-2.721,21l3.43,14.544c2.584,10.93,5.225,21.992,10.525,31.894,9.255,17.282,26.234,29.727,44.905,35.724,6.671,2.144,13.72,3.539,20.683,2.773,13.64-1.5,25.308-11.222,32.5-22.913s10.616-25.251,13.755-38.617c3.013-12.794,5.877-25.771,5.682-38.92-.057-4.093-.469-8.369-2.653-11.839-4.785-7.62-15.63-8.192-24.519-6.786a9.1,9.1,0,0,1-4.15.046c-4-1.246-4.093-6.74-5.808-10.553-3.241-7.192-12.857-8.467-20.718-7.815s-20.1,1.492-26.949,5.945C501.733,361.242,508.97,368.674,501.247,373.127Z" transform="translate(-213.121 -225.468)" opacity="0.1"/>
    <path id="Path_115" data-name="Path 115" d="M478.6,405.65c2.79,5.854,4.882,12.062,8.255,17.6a86.967,86.967,0,0,0,9.536,12.142c8.855,10.016,17.825,20.112,28.784,27.738a127.445,127.445,0,0,1,31.654-62.313c4.722-5.071,10.633-10.067,17.562-9.879,4.3.12,8.267,2.252,11.845,4.625A42.381,42.381,0,0,1,596.9,405.1c4.545,6.071,6.506,13.76,6.86,21.335s-.823,15.132-1.989,22.621l-6,38.708c-.349,2.241-.835,4.716-2.664,6.06a8.387,8.387,0,0,1-3.43,1.235c-21.821,4.248-44.311,1.492-66.543,1.275-24.582-.234-49.845,2.567-73.129-5.254a7.113,7.113,0,0,1-3.3-1.864,6.894,6.894,0,0,1-1.143-2.464c-5.425-17.562-1.075-36.433,2.144-54.527a427.832,427.832,0,0,0,5.437-43.322c.1-1.309,14.481,1.584,16.087,2.51C473.594,394,476.5,401.236,478.6,405.65Z" transform="translate(-205.745 -241.606)" fill="#e63946"/>
    <g id="Group_3" data-name="Group 3" transform="translate(61.723 153.065)" opacity="0.2">
      <path id="Path_116" data-name="Path 116" d="M186.428,662.142a6.806,6.806,0,0,1-.057.772q-3.27-1.292-6.414-2.778a5.2,5.2,0,0,1-2.967-1.446c-.612-.309-1.223-.629-1.829-.949a7.825,7.825,0,0,1,.463-.835,5.318,5.318,0,0,1,9.679.3,9.644,9.644,0,0,1,1.126,4.939Z" transform="translate(-152.755 -508.335)" fill="#3f3d56"/>
      <path id="Path_117" data-name="Path 117" d="M186.24,645.022a9.65,9.65,0,0,1-1.435,4.848,5.755,5.755,0,0,1-4.939,2.961l-.406-.029a5.2,5.2,0,0,1-2.967-1.446,7.165,7.165,0,0,1-1.366-1.784,10.033,10.033,0,0,1,.309-9.787,5.318,5.318,0,0,1,9.679.3A9.644,9.644,0,0,1,186.24,645.022Z" transform="translate(-152.259 -501.003)" fill="#3f3d56"/>
      <ellipse id="Ellipse_18" data-name="Ellipse 18" cx="8.009" cy="6.117" rx="8.009" ry="6.117" transform="translate(21.809 141.868) rotate(-88.19)" fill="#3f3d56"/>
      <ellipse id="Ellipse_19" data-name="Ellipse 19" cx="8.009" cy="6.117" rx="8.009" ry="6.117" transform="translate(22.121 132.08) rotate(-88.19)" fill="#3f3d56"/>
      <ellipse id="Ellipse_20" data-name="Ellipse 20" cx="8.009" cy="6.117" rx="8.009" ry="6.117" transform="translate(22.427 122.293) rotate(-88.19)" fill="#3f3d56"/>
      <path id="Path_118" data-name="Path 118" d="M143.992,446.012a28.391,28.391,0,0,1-2.172-3.43l16.156-2.132-17.413-.412a29.373,29.373,0,0,1,.177-23.233l22.936,12.828-21.009-16.487a29.316,29.316,0,1,1,47.358,34.3A29.223,29.223,0,0,1,193.2,452.9L172,463.094l22.484-6.763a29.35,29.35,0,0,1-5.6,27.383,29.316,29.316,0,1,1-46.037-1.469,29.316,29.316,0,0,1,1.143-36.233Z" transform="translate(-135.97 -399.247)" fill="#e63946"/>
      <path id="Path_119" data-name="Path 119" d="M195.727,515.264a29.19,29.19,0,0,1-6.86,17.922,29.316,29.316,0,1,1-46.02-1.452C139.056,526.623,195.83,511.976,195.727,515.264Z" transform="translate(-135.968 -448.735)" opacity="0.1"/>
    </g>
    <circle id="Ellipse_21" data-name="Ellipse 21" cx="12.365" cy="12.365" r="12.365" transform="translate(26.52 68.344)" fill="#e63946" opacity="0.1"/>
    <circle id="Ellipse_22" data-name="Ellipse 22" cx="12.365" cy="12.365" r="12.365" transform="translate(78.057 0)" fill="#e63946" opacity="0.1"/>
    <circle id="Ellipse_23" data-name="Ellipse 23" cx="20.723" cy="20.723" r="20.723" transform="translate(65.509 38.594)" fill="#e63946" opacity="0.1"/>
    <circle id="Ellipse_24" data-name="Ellipse 24" cx="48.021" cy="48.021" r="48.021" transform="translate(262.4 58.025)" fill="#fbbebe"/>
    <path id="Path_120" data-name="Path 120" d="M489.485,149.731c-12.811,1.624-26.64,3.767-35.7,12.971-5.065,5.145-8.032,12.005-10.473,18.8-3.784,10.576-6.6,21.724-5.717,32.946.789,10.039,4.5,20.306,1.5,29.922-1.383,4.425-4.1,8.289-6.208,12.411-3.91,7.655-5.751,16.236-6.426,24.805-.469,5.894-.377,11.96,1.561,17.545,2.064,5.945,6.088,11,8.638,16.756,3.773,8.5,4.15,18.054,4.442,27.343s.537,18.517.755,27.772c.137,5.82.149,12.051-3.07,16.9,11.885-4.762,23.936-9.621,34.106-17.4s18.4-18.985,19.717-31.722c1.063-10.325-2.424-20.5-5.431-30.436-7.432-24.582-12.234-50.788-6.826-75.89,1.949-9.038,6.689-19.128,15.784-20.792,5.551-1.012,11.091,1.521,16.093,4.139,11.822,6.186,24.01,14.189,28.412,26.783,4,11.388.635,24.073-4.573,34.947s-12.3,20.872-16.344,32.237c-6.214,17.436-4.465,37.851,5.86,53.212s29.4,24.811,47.747,22.33c-1.435-6.2-5.934-11.2-8.347-17.093-4.385-10.7-1.429-23,3.287-33.552s11.153-20.392,14.1-31.6c2.081-7.889,2.332-16.133,2.321-24.291,0-12.84-.635-25.686-1.869-38.468s-3.121-25.726-7.192-38.022c-3.27-9.861-8.032-19.4-15.155-26.96-7.58-8.055-17.448-13.514-27.138-18.865-5.8-3.19-11.719-6.42-18.225-7.615-5.145-.943-10.553-2.287-15.8-2.372C495.751,146.427,492,147.2,489.485,149.731Z" transform="translate(-198.569 -137.914)" fill="#434175"/>
    <rect id="Rectangle_9" data-name="Rectangle 9" width="34.787" height="81.03" rx="2.9" transform="matrix(0.982, 0.19, -0.19, 0.982, 348.774, 67.488)" fill="#656478"/>
    <rect id="Rectangle_10" data-name="Rectangle 10" width="34.787" height="81.03" rx="2.9" transform="matrix(0.982, 0.19, -0.19, 0.982, 351.109, 67.941)" fill="#3f3d56"/>
    <ellipse id="Ellipse_25" data-name="Ellipse 25" cx="5.745" cy="2.372" rx="5.745" ry="2.372" transform="matrix(0.19, -0.982, 0.982, 0.19, 361.384, 93.665)" fill="#e63946"/>
    <path id="Path_121" data-name="Path 121" d="M659.888,322.421c-1.509-2.67-3.121-5.431-5.665-7.14a20.007,20.007,0,0,0-4.676-2.1c-5.54-1.938-11.171-3.893-17.03-4.2a3.2,3.2,0,0,0-2.67.732c-1.281,1.5.749,3.55,2.5,4.459l13.96,7.232-12.868-1.361c-1.869-.2-4.533.309-4.4,2.184.091,1.229,1.441,1.9,2.607,2.287,8.261,2.858,17.808,5.1,22.33,12.577-6.026-.572-12.182-1.143-18.088.183a7.653,7.653,0,0,0-4.351,2.207c-1.058,1.275-1.178,3.43.154,4.442a4.487,4.487,0,0,0,2.961.572c4.19-.2,8.489-1.035,12.514.16s7.6,5.414,6.208,9.37a22.59,22.59,0,0,0,11.085-1.538c3.636-1.715,3.55-4.939,3.327-8.827C667.32,336.044,663.541,328.938,659.888,322.421Z" transform="translate(-285.439 -207.513)" fill="#fbbebe"/>
    <path id="Path_122" data-name="Path 122" d="M662.781,472.664a643.244,643.244,0,0,0-13.149-66.841c-2.858-11.434-6.106-23.062-5.288-34.827,11.811,1.5,22.393,2.618,33.277-2.207.177,6.18,4.659,11.434,6.289,17.408,1.092,4,.68,8.238,1.109,12.36s1.715,8.118,2.818,12.125a148.768,148.768,0,0,1,3.79,61.021C681.526,472.9,672.859,474.225,662.781,472.664Z" transform="translate(-291.938 -233.136)" opacity="0.1"/>
    <path id="Path_123" data-name="Path 123" d="M659.781,472.664a643.258,643.258,0,0,0-13.149-66.841c-2.858-11.434-6.106-23.062-5.288-34.827,11.811,1.5,22.393,2.618,33.277-2.207.177,6.18,4.659,11.434,6.288,17.408,1.092,4,.68,8.238,1.109,12.36s1.715,8.118,2.818,12.125a148.769,148.769,0,0,1,3.79,61.021C678.526,472.9,669.859,474.225,659.781,472.664Z" transform="translate(-290.653 -233.136)" fill="#e63946"/>
    <path id="Path_124" data-name="Path 124" d="M384.625,635.135l5.6-138.844a8.5,8.5,0,0,1,8.575-8.152l220.965,2.115a8.5,8.5,0,0,1,8.375,9.238L616.464,632.506a8.5,8.5,0,0,1-8.318,7.752l-214.883,3.716a8.5,8.5,0,0,1-8.638-8.838Z" transform="translate(-180.747 -284.256)" fill="#3f3d56"/>
    <ellipse id="Ellipse_26" data-name="Ellipse 26" cx="9.719" cy="11.434" rx="9.719" ry="11.434" transform="translate(317.567 255.54)" fill="#e63946"/>
    <path id="Path_125" data-name="Path 125" d="M924.77,584.76l-.457,3.922-7.432,63.376c-19.374,13.509-34.444.526-34.575,0l-9.364-63.674-.532-3.624Z" transform="translate(-389.679 -325.641)" fill="#3f3d56"/>
    <path id="Path_126" data-name="Path 126" d="M924.77,584.76l-.457,3.922c-21.827,12.691-45.111,2.813-51.371-.3l-.532-3.624Z" transform="translate(-389.679 -325.641)" opacity="0.1"/>
    <path id="Path_127" data-name="Path 127" d="M870.5,578.74v5.717s28.87,16.784,54.881,0V578.74Z" transform="translate(-388.861 -323.062)" fill="#e63946"/>
    <path id="Path_128" data-name="Path 128" d="M873.856,565.53s-.84,3.859-3.356,4.2v4.865h54.881v-4.362a4.056,4.056,0,0,1-2.858-4.7Z" transform="translate(-388.861 -317.404)" fill="#e63946"/>
    <ellipse id="Ellipse_27" data-name="Ellipse 27" cx="24.754" cy="7.135" rx="24.754" ry="7.135" transform="translate(484.16 241.409)" fill="#e63946"/>
    <ellipse id="Ellipse_28" data-name="Ellipse 28" cx="24.754" cy="7.135" rx="24.754" ry="7.135" transform="translate(484.16 241.409)" opacity="0.1"/>
    <path id="Path_129" data-name="Path 129" d="M924.786,561.628c0,2.858-9.387,5.2-20.975,5.2h-.617c-7.781-.057-14.5-1.143-17.933-2.767-1.549-.732-2.43-1.561-2.43-2.435,0-1.452,2.4-2.767,6.288-3.71a64.884,64.884,0,0,1,14.709-1.492C915.4,556.426,924.786,558.753,924.786,561.628Z" transform="translate(-394.142 -313.502)" opacity="0.1"/>
    <path id="Path_130" data-name="Path 130" d="M905.014,567.935c-7.781-.057-14.5-1.143-17.934-2.767h0L890.922,559Z" transform="translate(-395.962 -314.607)" opacity="0.1"/>
    <path id="Path_131" data-name="Path 131" d="M879.538,566.217c-.3-.063-.692.04-.749.337a.726.726,0,0,0,.114.429,6.1,6.1,0,0,0,2.733,2.338,1.629,1.629,0,0,0,.623.2.572.572,0,0,0,.572-.3.646.646,0,0,0-.04-.532,2.361,2.361,0,0,0-.709-.778C881.316,567.314,880.533,566.383,879.538,566.217Z" transform="translate(-392.411 -317.691)" opacity="0.1"/>
    <circle id="Ellipse_29" data-name="Ellipse 29" cx="14.766" cy="14.766" r="14.766" transform="translate(494.982 280.1)" fill="#e63946"/>
    <path id="Path_132" data-name="Path 132" d="M177.622,515.85h6.923a14.292,14.292,0,0,1,14.292,14.292V551.38H163.33V530.142A14.292,14.292,0,0,1,177.622,515.85Z" transform="translate(-69.958 -220.949)" fill="#3f3d56"/>
    <path id="Path_133" data-name="Path 133" d="M177.622,515.85h6.923a14.292,14.292,0,0,1,14.292,14.292V551.38H163.33V530.142A14.292,14.292,0,0,1,177.622,515.85Z" transform="translate(-69.958 -220.949)" opacity="0.1"/>
    <circle id="Ellipse_30" data-name="Ellipse 30" cx="2.841" cy="2.841" r="2.841" transform="translate(106.864 297.033)" fill="#3f3d56"/>
    <circle id="Ellipse_31" data-name="Ellipse 31" cx="2.841" cy="2.841" r="2.841" transform="translate(106.864 293.483)" fill="#3f3d56"/>
    <circle id="Ellipse_32" data-name="Ellipse 32" cx="2.841" cy="2.841" r="2.841" transform="translate(106.864 289.927)" fill="#3f3d56"/>
    <circle id="Ellipse_33" data-name="Ellipse 33" cx="2.841" cy="2.841" r="2.841" transform="translate(106.864 286.377)" fill="#3f3d56"/>
    <circle id="Ellipse_34" data-name="Ellipse 34" cx="2.841" cy="2.841" r="2.841" transform="translate(106.864 282.827)" fill="#3f3d56"/>
    <circle id="Ellipse_35" data-name="Ellipse 35" cx="2.841" cy="2.841" r="2.841" transform="translate(106.864 279.277)" fill="#3f3d56"/>
    <circle id="Ellipse_36" data-name="Ellipse 36" cx="2.841" cy="2.841" r="2.841" transform="translate(106.864 275.726)" fill="#3f3d56"/>
    <circle id="Ellipse_37" data-name="Ellipse 37" cx="2.841" cy="2.841" r="2.841" transform="translate(111.129 277.144)" fill="#3f3d56"/>
    <circle id="Ellipse_38" data-name="Ellipse 38" cx="2.841" cy="2.841" r="2.841" transform="translate(113.97 275.726)" fill="#3f3d56"/>
    <circle id="Ellipse_39" data-name="Ellipse 39" cx="2.841" cy="2.841" r="2.841" transform="translate(116.811 274.303)" fill="#3f3d56"/>
    <circle id="Ellipse_40" data-name="Ellipse 40" cx="2.841" cy="2.841" r="2.841" transform="translate(106.864 272.176)" fill="#3f3d56"/>
    <circle id="Ellipse_41" data-name="Ellipse 41" cx="2.841" cy="2.841" r="2.841" transform="translate(106.864 268.626)" fill="#3f3d56"/>
    <circle id="Ellipse_42" data-name="Ellipse 42" cx="2.841" cy="2.841" r="2.841" transform="translate(106.864 265.07)" fill="#3f3d56"/>
    <circle id="Ellipse_43" data-name="Ellipse 43" cx="2.841" cy="2.841" r="2.841" transform="translate(106.864 261.52)" fill="#3f3d56"/>
    <path id="Path_134" data-name="Path 134" d="M222.631,570.395c-.7.1-1.412.177-2.121.223a16.329,16.329,0,0,0,1.835-1.887,12.131,12.131,0,0,0-1.715-3.333,5.842,5.842,0,0,1-2.287.72c-.7.1-1.412.177-2.121.229a35.425,35.425,0,0,0,2.715-2.858,12.057,12.057,0,1,0,3.779,6.86Z" transform="translate(-101.15 -315.191)" fill="#e63946"/>
    <path id="Path_135" data-name="Path 135" d="M248.633,601.557a5.533,5.533,0,0,1-2.39.795c-.7.1-1.412.183-2.121.229a20.811,20.811,0,0,0,2.1-2.184,7.112,7.112,0,1,0,2.407,1.143Z" transform="translate(-117.656 -332.239)" fill="#e63946"/>
    <circle id="Ellipse_44" data-name="Ellipse 44" cx="2.841" cy="2.841" r="2.841" transform="translate(102.605 277.144)" fill="#3f3d56"/>
    <circle id="Ellipse_45" data-name="Ellipse 45" cx="2.841" cy="2.841" r="2.841" transform="translate(99.764 275.726)" fill="#3f3d56"/>
    <circle id="Ellipse_46" data-name="Ellipse 46" cx="2.841" cy="2.841" r="2.841" transform="translate(96.922 274.303)" fill="#3f3d56"/>
    <path id="Path_136" data-name="Path 136" d="M180.519,601.557a5.512,5.512,0,0,0,2.39.795c.7.1,1.412.183,2.121.229a20.245,20.245,0,0,1-2.1-2.184,7.112,7.112,0,1,1-2.407,1.143Z" transform="translate(-92.08 -332.239)" fill="#e63946"/>
    <path id="Path_137" data-name="Path 137" d="M177.622,519.58h6.923a14.292,14.292,0,0,1,14.292,14.292v18.791a2.424,2.424,0,0,1-2.424,2.424H165.754a2.424,2.424,0,0,1-2.424-2.424V533.872a14.292,14.292,0,0,1,14.292-14.292Z" transform="translate(-69.958 -222.547)" fill="#3f3d56"/>
    <g id="Group_4" data-name="Group 4" transform="translate(97.803 245.344)" opacity="0.1">
      <path id="Path_138" data-name="Path 138" d="M240.195,579.27a10.766,10.766,0,0,1-.915.869,9.275,9.275,0,0,0,.972-.086A5.1,5.1,0,0,0,240.195,579.27Z" transform="translate(-216.298 -568.634)"/>
      <path id="Path_139" data-name="Path 139" d="M231.82,571.557c.715-.046,1.418-.12,2.127-.223a6.858,6.858,0,0,0,1.847-.5,12.166,12.166,0,0,0-.995-1.641,4.3,4.3,0,0,1-1.143.486,16.457,16.457,0,0,1-1.835,1.881Z" transform="translate(-213.103 -564.316)"/>
      <path id="Path_140" data-name="Path 140" d="M200.332,574.005a12.051,12.051,0,0,1,18.58-10.153l.183-.194a12.062,12.062,0,1,0-15.9,18.14,12,12,0,0,1-2.858-7.792Z" transform="translate(-199.08 -560.665)"/>
    </g>
    <g id="Group_5" data-name="Group 5" transform="translate(119.652 267.917)" opacity="0.1">
      <path id="Path_141" data-name="Path 141" d="M249.22,605.028c.709-.046,1.418-.12,2.121-.223a5.546,5.546,0,0,0,2.39-.8,7.106,7.106,0,0,1,2.858,5.031,6.511,6.511,0,0,0,.04-.749,7.078,7.078,0,0,0-2.858-5.717,5.534,5.534,0,0,1-2.39.795l-.572.074A14.5,14.5,0,0,1,249.22,605.028Z" transform="translate(-242.406 -601.186)"/>
      <path id="Path_142" data-name="Path 142" d="M244.4,601.568a5.823,5.823,0,0,1,.709.052c.372-.395.737-.818,1.109-1.229a7.089,7.089,0,0,0-8.918,6.86,4.867,4.867,0,0,0,.034.709A7.1,7.1,0,0,1,244.4,601.568Z" transform="translate(-237.3 -600.15)"/>
    </g>
    <g id="Group_6" data-name="Group 6" transform="translate(85.54 267.917)" opacity="0.1">
      <path id="Path_143" data-name="Path 143" d="M185.039,605.028c-.709-.046-1.418-.12-2.121-.223a5.517,5.517,0,0,1-2.39-.8,7.106,7.106,0,0,0-2.858,5.031,6.5,6.5,0,0,1-.04-.749,7.077,7.077,0,0,1,2.858-5.717,5.511,5.511,0,0,0,2.39.795l.572.074a13.535,13.535,0,0,0,1.589,1.589Z" transform="translate(-177.63 -601.186)"/>
      <path id="Path_144" data-name="Path 144" d="M188.728,601.568a5.917,5.917,0,0,0-.715.051c-.366-.394-.732-.818-1.1-1.229a7.089,7.089,0,0,1,8.918,6.86,4.869,4.869,0,0,1-.034.709A7.1,7.1,0,0,0,188.728,601.568Z" transform="translate(-181.605 -600.15)"/>
    </g>
  </g>
</svg>
