<svg xmlns="http://www.w3.org/2000/svg" width="698.422" height="590.946" viewBox="0 0 698.422 590.946">
  <g id="work-table" transform="translate(0 0.002)">
    <ellipse id="Ellipse_1" data-name="Ellipse 1" cx="29.648" cy="4.547" rx="29.648" ry="4.547" transform="translate(35.521 499.457)" fill="#e63946" opacity="0.1"/>
    <ellipse id="Ellipse_2" data-name="Ellipse 2" cx="29.648" cy="4.547" rx="29.648" ry="4.547" transform="translate(463.142 505.644)" fill="#e63946" opacity="0.1"/>
    <ellipse id="Ellipse_3" data-name="Ellipse 3" cx="29.648" cy="4.547" rx="29.648" ry="4.547" transform="translate(390.103 547.775)" fill="#e63946" opacity="0.1"/>
    <ellipse id="Ellipse_4" data-name="Ellipse 4" cx="29.648" cy="4.547" rx="29.648" ry="4.547" transform="translate(131.591 465.526)" fill="#e63946" opacity="0.1"/>
    <ellipse id="Ellipse_5" data-name="Ellipse 5" cx="170.062" cy="36.659" rx="170.062" ry="36.659" transform="translate(0 517.625)" fill="#e63946" opacity="0.1"/>
    <path id="Path_1" data-name="Path 1" d="M793.148,444.814c-4.59,11.064-10.613,21.67-19.042,29.806-10.269,9.911-23.024,15.318-36.681,17.9a110.462,110.462,0,0,1-12.174,1.576,176.946,176.946,0,0,1-32.441-.874A383.558,383.558,0,0,1,616.4,476.876q-6.123-1.977-12.174-4.161-9.131-3.273-18.1-7.025c-24.349-10.176-49.521-23.153-75.424-19.128-12.554,1.955-24.349,7.878-36.931,9.639a66.035,66.035,0,0,1-26.383-1.876,90.661,90.661,0,0,1-12.174-4.2A138.53,138.53,0,0,1,409.92,435.8c-18.978-13.263-36.008-29.706-55.988-41.192-22.028-12.668-46.413-18.691-71.256-23.181q-6.066-1.1-12.174-2.091c-11.494-1.9-23.017-3.652-34.375-5.729-10.943-2.02-22.079-4.49-31.6-10.563-6.8-4.333-12.511-10.334-17.753-16.657A198.72,198.72,0,0,1,162.05,298.27q-.537-1.074-1.053-2.148c-10.52-21.584-17.6-45.117-21.935-69.466-.129-.716-.251-1.432-.372-2.148a392.283,392.283,0,0,1-5.12-73.046l.043-2.148c.279-12.1,1.031-24.141,2.148-36.015.8-8.35,1.876-17.015,6.2-24.034s11.372-11.523,18.39-15.275c31.037-16.521,60.764-21.119,94.122-13.113,5.357,1.282,10.692,2.664,16.027,4.1,4.061,1.089,8.121,2.213,12.174,3.344,28.023,7.813,55.973,16.127,84.941,18.62q4.2.365,8.4.559,8.314.387,16.629.172a287.3,287.3,0,0,0,42.567-4.383q6.1-1.053,12.174-2.335c17.474-3.645,34.79-8.508,51.827-13.886q5.221-1.647,10.427-3.352c7.82-2.557,15.641-5.163,23.475-7.7,23.389-7.584,46.893-14.509,71.106-17.3q3.108-.351,6.216-.623c1.984-.172,3.975-.308,5.958-.408A202.636,202.636,0,0,1,725.251,63.276q6.2,3.445,12.174,7.333,8.286,5.393,16.063,11.6c10.628,8.486,20.575,18.147,28.151,29.756a107.691,107.691,0,0,1,14.932,37.354c.15.716.294,1.432.422,2.148,4.046,21.549,2.786,44.658-1.755,66.25-.48,2.263-.988,4.533-1.518,6.8-.165.716-.337,1.432-.508,2.148-4.9,20.417-11.157,40.777-9.525,61.652.208,2.628.537,5.235.967,7.813.122.716.243,1.432.38,2.148,3.194,17.03,10.456,33.186,14.81,50.051a154.2,154.2,0,0,1-6.7,96.486Z" transform="translate(-118.366 -37.41)" fill="#e63946" opacity="0.1"/>
    <path id="Path_2" data-name="Path 2" d="M737.45,151.577h59.576c-.129-.716-.272-1.432-.422-2.148H737.45V70.718q-5.973-3.881-12.174-7.333v86.044H616.423V37.79c-1.984.1-3.975.236-5.958.408s-4.146.387-6.216.623V149.429h-155.4l-.372-.408,84.669-92.9c-7.835,2.535-15.655,5.142-23.475,7.7l-62.254,68.313V81.052q-6.08,1.275-12.174,2.335v51.1L392.672,87.769q-8.314.2-16.629-.172l55.974,61.423-.372.408H282.687v-81c-4.053-1.132-8.114-2.256-12.174-3.344v84.347H133.623l-.043,2.148H270.527v73.046H138.7c.122.716.243,1.432.372,2.148H270.527v69.466H161.008q.516,1.074,1.053,2.148H270.527V369.47q6.1,1,12.174,2.091V298.386H435.24V450.208a90.659,90.659,0,0,0,12.174,4.2V298.386H604.248v174.43q6.059,2.191,12.174,4.161V298.386H725.276V494.2a110.473,110.473,0,0,0,12.174-1.576V298.386h47.609c-.136-.716-.258-1.432-.38-2.148H737.415V226.772H793.2c.172-.716.344-1.432.508-2.148H737.45Zm-12.174,0v73.046H616.423V151.577ZM604.248,224.624H447.414V151.577H604.248ZM282.7,151.577H433.091l2.148,1.955v71.091H282.7Zm0,144.66V226.772H435.24v69.466Zm164.712,0V226.772H604.248v69.466Zm277.862,0H616.423V226.772H725.276Z" transform="translate(-118.391 -37.519)" fill="#e63946" opacity="0.1"/>
    <path id="Path_3" data-name="Path 3" d="M870.348,124.632H869.4a2.313,2.313,0,0,0,1.153-1.876h0c0-1.475-1.812-2.686-4.025-2.686H838.315c-2.213,0-4.032,1.21-4.032,2.686h0c0,1.482,1.819,2.693,4.032,2.693h.945a2.32,2.32,0,0,0-1.153,1.876c0,1.26,1.318,2.327,3.079,2.614h-8.135c-2.22,0-4.032,1.21-4.032,2.686s1.812,2.693,4.032,2.693h28.223c2.22,0,4.032-1.21,4.032-2.693,0-1.26-1.318-2.32-3.087-2.607h8.128c2.213,0,4.025-1.21,4.025-2.693S872.561,124.632,870.348,124.632Z" transform="translate(-315.799 -60.875)" fill="#e63946" opacity="0.1"/>
    <path id="Path_4" data-name="Path 4" d="M443.188,160.4h-.945a2.349,2.349,0,0,0,1.153-1.876h0c0-1.482-1.812-2.693-4.032-2.693H411.141c-2.22,0-4.032,1.21-4.032,2.693h0c0,1.475,1.812,2.686,4.032,2.686h.938a2.342,2.342,0,0,0-1.146,1.876c0,1.268,1.318,2.327,3.079,2.614h-8.121c-2.22,0-4.032,1.21-4.032,2.693s1.812,2.686,4.032,2.686h28.223c2.22,0,4.032-1.21,4.032-2.686,0-1.268-1.325-2.327-3.087-2.614h8.128c2.213,0,4.025-1.21,4.025-2.693S445.4,160.4,443.188,160.4Z" transform="translate(-194.545 -71.025)" fill="#e63946" opacity="0.1"/>
    <path id="Path_5" data-name="Path 5" d="M930.808,313.462h-.945a2.349,2.349,0,0,0,1.153-1.876h0c0-1.475-1.812-2.686-4.032-2.686H898.761c-2.22,0-4.032,1.21-4.032,2.686h0c0,1.475,1.812,2.686,4.032,2.686h.938a2.334,2.334,0,0,0-1.146,1.876c0,1.26,1.318,2.327,3.079,2.614H893.5c-2.213,0-4.025,1.21-4.025,2.686s1.812,2.693,4.025,2.693h28.23c2.213,0,4.032-1.21,4.032-2.693,0-1.26-1.325-2.32-3.087-2.607h8.128c2.213,0,4.025-1.21,4.025-2.693S933.021,313.462,930.808,313.462Z" transform="translate(-332.961 -114.476)" fill="#e63946" opacity="0.1"/>
    <path id="Path_6" data-name="Path 6" d="M227.018,601.47l329.976,37.082v10.52L226.18,610.73Z" transform="translate(-64.204 -170.734)" fill="#eaecf0"/>
    <path id="Path_7" data-name="Path 7" d="M224.169,594.43H217.91V438.97l4.5,1.368.05,4.662Z" transform="translate(-61.856 -124.607)" fill="#eaecf0"/>
    <path id="Path_8" data-name="Path 8" d="M228.712,592.465l-2.757,2.506-1.7-149.43-.05-4.662h3.258l.043,4.941Z" transform="translate(-63.641 -125.149)" fill="#d3dae1"/>
    <path id="Path_9" data-name="Path 9" d="M92.83,634.338l91.329-31.818v3.008L92.83,637.1Z" transform="translate(-26.351 -171.032)" fill="#d3dae1"/>
    <path id="Path_10" data-name="Path 10" d="M94.463,645.549l-1.633-7.262,91.329-31.567v6.259Z" transform="translate(-26.351 -172.224)" fill="#eaecf0"/>
    <path id="Path_11" data-name="Path 11" d="M686.133,425.14V630.586h-4.762L681.127,440l-.007-6.094Z" transform="translate(-193.343 -120.681)" fill="#eaecf0"/>
    <path id="Path_12" data-name="Path 12" d="M691.622,423.74V628.434l-3.5,1.755V424.743Z" transform="translate(-195.33 -120.284)" fill="#d3dae1"/>
    <path id="Path_13" data-name="Path 13" d="M586.13,690.617l68.219-38.127,4.82,2.8L586.13,695.122Z" transform="translate(-166.379 -185.217)" fill="#d3dae1"/>
    <path id="Path_14" data-name="Path 14" d="M588.264,704.754l-2.134-8.522L659.169,656.4v8.264Z" transform="translate(-166.379 -186.327)" fill="#eaecf0"/>
    <path id="Path_15" data-name="Path 15" d="M574.76,469.976l.251,216.976h6.768l-1-219.483Z" transform="translate(-163.152 -132.697)" fill="#eaecf0"/>
    <path id="Path_16" data-name="Path 16" d="M587.421,464.67V684.4l-3.258,1.755-1-219.482.4-.186Z" transform="translate(-165.536 -131.902)" fill="#d3dae1"/>
    <path id="Path_17" data-name="Path 17" d="M88.53,627.823H82.765L80.789,433.734l-.029-3.344h5.514l.043,3.817Z" transform="translate(-22.925 -122.171)" fill="#eaecf0"/>
    <path id="Path_18" data-name="Path 18" d="M94.719,626.319l-4,1.5L88.5,434.207l-.043-3.817h4.261l.036,4.189Z" transform="translate(-25.11 -122.171)" fill="#d3dae1"/>
    <path id="Path_19" data-name="Path 19" d="M583.72,466.489l3.86-1.819v8.522l-3.76,1.253Z" transform="translate(-165.695 -131.902)" opacity="0.1"/>
    <path id="Path_20" data-name="Path 20" d="M689.635,423.74v13.027l-3.5,1.174-5.006,1.661-.007-6.094,5.013-8.766Z" transform="translate(-193.343 -120.284)" opacity="0.1"/>
    <path id="Path_21" data-name="Path 21" d="M661.828,388.75v36.079l-78.167,26.06-.5-38.586Z" transform="translate(-165.536 -110.351)" fill="#d48a9b"/>
    <path id="Path_22" data-name="Path 22" d="M79.36,377.506,182.09,357.97l336.729,22.043-78.668,23.554Z" transform="translate(-22.527 -101.614)" fill="#efc6cd"/>
    <path id="Path_23" data-name="Path 23" d="M90.535,430.39l.036,4.189-4.254-.372-5.529-.473-.029-3.344Z" transform="translate(-22.925 -122.171)" opacity="0.1"/>
    <path id="Path_24" data-name="Path 24" d="M225.716,445.279,222.465,445l-4.555-.387V438.97l4.5,1.368h3.258Z" transform="translate(-61.856 -124.607)" opacity="0.1"/>
    <path id="Path_25" data-name="Path 25" d="M79.36,385.25v33.58L440.652,449.9l-.5-38.586Z" transform="translate(-22.527 -109.358)" fill="#d48a9b"/>
    <path id="Path_26" data-name="Path 26" d="M460.666,434.213H413.48V417.09l47.186,3.323Z" transform="translate(-117.371 -118.396)" fill="#d48a9b"/>
    <path id="Path_27" data-name="Path 27" d="M460.666,434.213H413.48V417.09l47.186,3.323Z" transform="translate(-117.371 -118.396)" opacity="0.1"/>
    <path id="Path_28" data-name="Path 28" d="M324.96,411.85v27.056l181.148,13.779v-28.81l-70.654-4.01-7.018,6.266-28.81-2.005-10.269-7.519Z" transform="translate(-92.243 -116.908)" opacity="0.1"/>
    <path id="Path_29" data-name="Path 29" d="M323.56,410.44V437.5l181.148,13.779v-28.81l-70.654-4.01-7.011,6.266-28.817-2.005L387.955,415.2Z" transform="translate(-91.846 -116.508)" fill="#fff"/>
    <path id="Path_30" data-name="Path 30" d="M165.807,400.3l42.839,3.008-.5,13.614H180.173l-18.713-7.355Z" transform="translate(-45.832 -113.63)" fill="#d48a9b"/>
    <path id="Path_31" data-name="Path 31" d="M165.807,400.3l42.839,3.008-.5,13.614H180.173l-18.713-7.355Z" transform="translate(-45.832 -113.63)" opacity="0.1"/>
    <path id="Path_32" data-name="Path 32" d="M87.76,395.05v24.306l164.361,13.027v-25.81l-63.393-3.753-6.76,5.006-25.559-1.5-10.52-6.517Z" transform="translate(-24.912 -112.14)" opacity="0.1"/>
    <path id="Path_33" data-name="Path 33" d="M86.36,393.65v24.306l164.361,13.027v-25.8l-63.393-3.76-6.76,5.013-25.559-1.5-10.52-6.517Z" transform="translate(-24.514 -111.742)" fill="#fff"/>
    <path id="Path_34" data-name="Path 34" d="M96.65,649.327l1.124-.387-.566,7.992-.559.2Z" transform="translate(-27.435 -184.209)" opacity="0.1"/>
    <path id="Path_35" data-name="Path 35" d="M564.232,393.78l23.038,1.511-38.177,11.43L529.65,405.31Z" transform="translate(-150.347 -111.779)" opacity="0.1"/>
    <path id="Path_36" data-name="Path 36" d="M564.232,392.38l23.038,1.511-38.177,11.422-19.443-1.4Z" transform="translate(-150.347 -111.382)" fill="#fff"/>
    <path id="Path_37" data-name="Path 37" d="M686.46,433.356c.91-.387,1.876.344,2.865.53.551.107,1.124,0,1.676.107,1.132.15,2.256.909,3.33.523" transform="translate(-275.331 -149.772)" fill="#d3dae1"/>
    <path id="Path_38" data-name="Path 38" d="M684.8,434.324c.9-.394,1.876.337,2.865.523.551.107,1.124,0,1.683.107,1.132.15,2.249.91,3.323.523" transform="translate(-274.86 -150.046)" fill="#d3dae1"/>
    <path id="Path_39" data-name="Path 39" d="M681,436.246c.91-.387,1.883.344,2.865.53.552.107,1.124,0,1.683.107,1.131.15,2.249.909,3.323.523" transform="translate(-273.781 -150.593)" fill="#d3dae1"/>
    <circle id="Ellipse_6" data-name="Ellipse 6" cx="6.725" cy="6.725" r="6.725" transform="translate(29.082 521.256)" fill="#535461"/>
    <circle id="Ellipse_7" data-name="Ellipse 7" cx="6.725" cy="6.725" r="6.725" transform="translate(41.114 547.56)" fill="#535461"/>
    <circle id="Ellipse_8" data-name="Ellipse 8" cx="6.725" cy="6.725" r="6.725" transform="translate(161.088 552.322)" fill="#535461"/>
    <circle id="Ellipse_9" data-name="Ellipse 9" cx="6.725" cy="6.725" r="6.725" transform="translate(187.894 517.997)" fill="#535461"/>
    <rect id="Rectangle_1" data-name="Rectangle 1" width="8.422" height="52.615" transform="translate(110.321 409.223)" fill="#535461"/>
    <rect id="Rectangle_2" data-name="Rectangle 2" width="8.422" height="8.522" transform="translate(110.321 453.316)" opacity="0.1"/>
    <rect id="Rectangle_3" data-name="Rectangle 3" width="11.673" height="58.38" transform="translate(108.696 455.321)" fill="#3a3768"/>
    <path id="Path_40" data-name="Path 40" d="M351.806,752.96l-76.426-3.13v12.3h88.694A13.549,13.549,0,0,0,351.806,752.96Z" transform="translate(-158.642 -239.638)" fill="#3a3768"/>
    <path id="Path_41" data-name="Path 41" d="M163.8,752.96l76.426-3.13v12.3H151.53a13.542,13.542,0,0,1,12.267-9.167Z" transform="translate(-123.486 -239.638)" fill="#3a3768"/>
    <path id="Path_42" data-name="Path 42" d="M236.559,751.086l-61.015,30.078a15.469,15.469,0,0,0-8.594,13.857v.917l71.256-31.066,10.026-.752,59.253,37.834h0a15.454,15.454,0,0,0-6.381-14.681L248.232,749.84Z" transform="translate(-127.863 -239.641)" fill="#3a3768"/>
    <path id="Path_43" data-name="Path 43" d="M274.842,608.83V614.5q-2.213.093-4.512.093c-1.325,0-2.628,0-3.91-.072V608.83Z" transform="translate(-156.099 -199.614)" opacity="0.1"/>
    <ellipse id="Ellipse_10" data-name="Ellipse 10" cx="31.073" cy="9.088" rx="31.073" ry="9.088" transform="translate(83.158 394.8)" fill="#3a3768"/>
    <path id="Path_44" data-name="Path 44" d="M290.257,597.788a3.71,3.71,0,0,1-1.325,2.628c-3.839,3.738-15.7,6.445-29.741,6.445-13.728,0-25.366-2.607-29.483-6.209a3.939,3.939,0,0,1-1.6-2.865c0-5.013,13.915-9.088,31.08-9.088S290.257,592.768,290.257,597.788Z" transform="translate(-145.224 -193.9)" opacity="0.1"/>
    <path id="Path_45" data-name="Path 45" d="M290.627,597.794a3.71,3.71,0,0,1-1.325,2.628c-3.953-.988-6.689-1.8-6.689-1.8s-27.392,1.533-52.536,2.055a3.939,3.939,0,0,1-1.6-2.865c0-5.013,13.915-9.088,31.08-9.088S290.627,592.773,290.627,597.794Z" transform="translate(-145.329 -193.906)" opacity="0.1"/>
    <path id="Path_46" data-name="Path 46" d="M162.257,430.606s10.277,28.065,9.775,44.852-8.522,48.354-8.522,48.354-8.014,25.559,12.532,27.815,87.691-1.5,87.691-1.5,25.065,7.512,33.071,4.254c3.115-1.26,5.815-4.039,7.949-6.968a14.574,14.574,0,0,0-3.781-20.8,43.414,43.414,0,0,0-12.081-5.185,9.7,9.7,0,0,0-2.757-.337l-87.548,1.726s-9.768-1.5-8.014-11.272,4.755-39.839,4.755-39.839.5-36.58-17.037-46.85S162.257,430.606,162.257,430.606Z" transform="translate(-126.45 -146.414)" fill="#3a3768"/>
    <path id="Path_47" data-name="Path 47" d="M162.257,430.482s10.277,28.058,9.775,44.845-8.522,48.361-8.522,48.361S155.5,549.24,176.042,551.5s87.691-1.511,87.691-1.511,25.065,7.519,33.071,4.3c3.115-1.268,5.815-4.046,7.949-6.968a14.581,14.581,0,0,0-3.781-20.811,43.842,43.842,0,0,0-12.081-5.185,9.447,9.447,0,0,0-2.757-.33l-87.548,1.7s-9.768-1.5-8.014-11.279,4.755-39.832,4.755-39.832.5-36.58-17.037-46.857S162.257,430.482,162.257,430.482Z" transform="translate(-126.45 -146.376)" opacity="0.1"/>
    <path id="Path_48" data-name="Path 48" d="M165.057,429.206s10.277,28.066,9.775,44.852-8.522,48.354-8.522,48.354-8.014,25.559,12.525,27.815,87.691-1.5,87.691-1.5,25.065,7.512,33.078,4.3c3.115-1.268,5.815-4.046,7.949-6.975a14.574,14.574,0,0,0-3.781-20.8,43.412,43.412,0,0,0-12.081-5.221,9.7,9.7,0,0,0-2.757-.337l-87.548,1.726s-9.768-1.5-8.014-11.272,4.755-39.839,4.755-39.839.5-36.58-17.037-46.85S165.057,429.206,165.057,429.206Z" transform="translate(-127.244 -146.016)" fill="#3a3768"/>
    <path id="Path_49" data-name="Path 49" d="M413.253,759.257v9.059s43.276.781,52.808.781,22.651-4.684,23.432-8.436-10.935-6.875-15.311-7.025-4.526-1.876-10.155-4.848c-3.173-1.676-7.992-6.538-11.587-10.456-2.771-3.022-4.812-5.479-4.812-5.479s-23.282-.465-30,3.28a8.15,8.15,0,0,0-3.344,4.655C411.863,747.784,413.253,759.257,413.253,759.257Z" transform="translate(-197.666 -234.814)" fill="#424244"/>
    <path id="Path_50" data-name="Path 50" d="M414.85,740.787c4.884-1.7,33.458-2.356,38.156-2.456-2.772-3.022-4.812-5.479-4.812-5.479s-23.282-.465-30,3.28A8.126,8.126,0,0,0,414.85,740.787Z" transform="translate(-198.232 -234.814)" opacity="0.1"/>
    <path id="Path_51" data-name="Path 51" d="M239.54,539.729l2.521,1.525.945.573,3.674,2.206c19.637,11.838,73.2,43.914,76.133,43.685.766-.065,3.072-.408,6.259-.931.845-.136,1.755-.279,2.707-.444,12.267-2.041,32.656-5.729,34.933-6.746,3.122-1.432,2.5,4.841,1.246,10.155s-2.184,30.794-.781,34.06.781,8.594.781,8.594l-1.869,28.588,1.253,6.073s-4.218,3.438-2.5,5.464.158,10.785.158,10.785c5.013-1.876,38.9-2.5,38.9-2.5s-1.432-12.5-.158-15.469.315-20.625.315-20.625.781-13.435-.623-16.557.465-23.124.465-23.124,1.253-11.874,1.561-36.093-13.75-24.993-13.75-24.993-1.869-.15-4.719-.422c-5.564-.537-14.846-1.554-21.047-2.865a36.313,36.313,0,0,1-3.76-1c-7.656-2.607-33.429-2.707-37.647-.831a11.268,11.268,0,0,1-8.422,0h0l-3.28-5.314L281.5,536.191l-3.316.286-30.851,2.628-2.148.186Z" transform="translate(-148.469 -178.237)" fill="#565387"/>
    <path id="Path_52" data-name="Path 52" d="M413.089,566.521c9.1,4.44,17.789-11.293,21.835-20.166-5.564-.537-14.846-1.554-21.047-2.865C409.8,550.3,404.36,562.274,413.089,566.521Z" transform="translate(-196.407 -181.067)" opacity="0.1"/>
    <path id="Path_53" data-name="Path 53" d="M376.76,421.143a9.447,9.447,0,0,0,1.1,3.051c3.366,6.818,13.112,20.854,13.112,20.854a22.586,22.586,0,0,1,7.161,7.161c2.657,4.533,3.437,15.154,3.437,15.154s5.937,23.59,8.744,26.877c1.432,1.64.781,2.614-.193,3.18a13.914,13.914,0,0,0-4.927,4.619c-4.1,6.581-10.635,19.651-1.432,24.134,12.5,6.094,24.22-25.846,24.22-25.846s-2.349-22.651-2.972-26.554-4.376-20-4.376-20-2.657-6.875-4.218-11.716-6.245-10.47-6.245-10.47-8.443-16.872-10.785-19.372c-1.089-1.16-2.614-2.621-3.932-3.853-1.525-1.432-2.786-2.549-2.786-2.549S376.6,417.4,376.76,421.143Z" transform="translate(-187.419 -141.985)" fill="#af8357"/>
    <path id="Path_54" data-name="Path 54" d="M228.85,753.418l28.431,12.654s36.845.781,43.291-.938,5.013-8.9-3.437-10.312-10.463-5.149-13.277-6.868c-1.9-1.16-8.637-8.658-12.812-13.406-2.012-2.285-3.437-3.939-3.437-3.939s-5.471-14.53-20.625-11.25a15.562,15.562,0,0,0-7.383,3.9c-8.171,7.562-8.88,22.523-8.88,22.523Z" transform="translate(-145.434 -230.852)" fill="#424244"/>
    <path id="Path_55" data-name="Path 55" d="M244.38,541.56l3.674,2.206c19.637,11.838,73.2,43.914,76.133,43.685.766-.064,3.072-.408,6.259-.931.845-.136,1.755-.279,2.707-.444l.107-.179a35.809,35.809,0,0,0,3.581-8.758c3.28-12.5-12.969-22.028-12.969-22.028l-3.437-2.671c-3.9-6.574-32.026-12.79-32.026-12.79l-3.624-2.471-1.941-1.3-.508-.337-4.4-2.958-22.028,1.561-6.546,4.2-.716.444-2.392,1.568Z" transform="translate(-149.842 -177.97)" opacity="0.1"/>
    <path id="Path_56" data-name="Path 56" d="M243.86,723.27c5.98,20.689,30.959,13.929,30.959,13.929l.473-2.621c-2.012-2.284-3.437-3.939-3.437-3.939s-5.471-14.53-20.625-11.251a15.563,15.563,0,0,0-7.369,3.881Z" transform="translate(-149.695 -230.861)" opacity="0.1"/>
    <path id="Path_57" data-name="Path 57" d="M232.093,576.736c9.217,0,32.942,11.093,32.942,11.093,4.841,3.753,11.4,2.5,11.4,2.5s-11.537,11.716-11.215,16.564-6.567,12.812-6.567,12.812l-21.248,42.023c1.568,29.841,32.183,21.563,32.183,21.563l1.253-7.032c1.876-.938,4.691-10.312,4.691-10.312s0-3.745,1.869-4.841,5.779-12.346,5.779-12.346,8.436-14.215,7.964-16.085,6.094-11.4,6.094-11.4,11.093-10.935,10.62-12.891,8.923-11.96,8.923-11.96a31.438,31.438,0,0,0,8.293-9.682,35.9,35.9,0,0,0,3.581-8.751c2.643-10.069-7.383-18.211-11.387-21-.967-.673-1.583-1.031-1.583-1.031l-3.437-2.671c-1.776-2.993-8.558-5.915-15.433-8.2-4.956-1.654-9.954-2.986-13.155-3.781-2.148-.523-3.437-.816-3.437-.816l-3.624-2.435-1.275-.859-1.167-.781-4.4-2.958-9.8.716-12.232.867-6.538,4.211-3.122,2.005-12.21,7.878s-.322,3-.423,7.04v.953C225.268,565.242,226.149,576.736,232.093,576.736Z" transform="translate(-144.459 -178.22)" fill="#565387"/>
    <path id="Path_58" data-name="Path 58" d="M300.4,343.539l3.294,11.716s5.786,20.159,6.409,21.563,15.755,15.626,16.407,15.934,8.873,5.013,8.873,5.013.652-25.781,0-33.272a21.4,21.4,0,0,1,.408-4.913c1-5.88,3.516-14.495,5.607-21.133,1.747-5.564,3.2-9.732,3.2-9.732s-36.559-1.568-35.306,2.027c.473,1.361.315,3.631-.136,5.908-.759,3.753-2.327,7.505-3.3,7.219a12.846,12.846,0,0,0-2.9-.322C301.625,343.489,300.4,343.539,300.4,343.539Z" transform="translate(-165.744 -120.004)" fill="#af8357"/>
    <path id="Path_59" data-name="Path 59" d="M312.65,336.63a27.042,27.042,0,0,0,32.226,1.8c1.747-5.564,3.2-9.732,3.2-9.732s-36.559-1.568-35.306,2.027C313.259,332.082,313.1,334.353,312.65,336.63Z" transform="translate(-169.222 -119.998)" opacity="0.1"/>
    <path id="Path_60" data-name="Path 60" d="M299.09,298.917a26.905,26.905,0,1,0,7.882-19.149,27.034,27.034,0,0,0-7.882,19.149Z" transform="translate(-165.372 -103.97)" fill="#af8357"/>
    <path id="Path_61" data-name="Path 61" d="M300.4,349.542l3.294,11.716s5.786,20.159,6.409,21.563,15.755,15.626,16.407,15.934,8.873,5.013,8.873,5.013.652-25.781,0-33.272a21.4,21.4,0,0,1,.408-4.913l-2.148,8.658.158,17.345,1.246.938-2.807,4.218v-3.13s-10.026-9.682-11.566-13.75-7.161-11.415-7.161-11.415-6.445-10.742-6.56-12.64c-.122-1.432-2.814-4.841-4-6.259C301.625,349.492,300.4,349.542,300.4,349.542Z" transform="translate(-165.744 -126.007)" opacity="0.1"/>
    <path id="Path_62" data-name="Path 62" d="M376.76,421.151a9.447,9.447,0,0,0,1.1,3.051c3.416-.344,15.039-2.521,17.617-15.812-1.525-1.432-2.786-2.549-2.786-2.549S376.6,417.413,376.76,421.151Z" transform="translate(-187.419 -141.993)" opacity="0.1"/>
    <path id="Path_63" data-name="Path 63" d="M225.39,557.064c3.151-2.234,6.152-5.278,7.942-6.116,2.657-1.253,6.717-5.314,6.717-5.314s1.031-.716,2.614-1.633c2.9-1.7,7.656-4.161,11.294-4.462,3.258-.272,14.1-.967,22.623-1.5l11.122-.716s10.155-3.581,14.531-1.253a46.091,46.091,0,0,0,9.84,3.581v-.931h0l-3.28-5.314-34.654,2.958-4.4-2.958L247.7,534.971l-6.538,4.211-5.643.48,2.521,1.525-12.21,7.878S225.462,552.56,225.39,557.064Z" transform="translate(-144.452 -178.205)" opacity="0.1"/>
    <path id="Path_64" data-name="Path 64" d="M218.207,505.9a14.229,14.229,0,0,0,4.576-2.335h0c3.144-2.227,6.137-5.264,7.921-6.1,2.657-1.253,6.717-5.314,6.717-5.314s8.286-5.629,13.907-6.094c1.533-.129,4.741-.351,8.594-.6l12.754-.816,6.617-.415,5.779-.351s10.155-3.581,14.531-1.253a46.094,46.094,0,0,0,9.84,3.581s.158-10.935,1.432-15.469,2.965-12.812,2.965-12.812,1.432-11.4,2.814-16.557,6.875-33.9,9.689-35.807,4.368,1.432,4.368,1.432,18.749-.315,19.064-20.933c0,0-8.751-8.751-9.374-10.935s-8.9-10.312-8.9-10.312-4.691-8.751-10.026-8.909a42.067,42.067,0,0,0-7.52.236l-4.512,18.355.158,17.345,1.253.938-2.814,4.218v-3.072s-10.026-9.689-11.559-13.75-7.161-11.422-7.161-11.422-6.4-10.742-6.56-12.64-4.533-6.9-4.533-6.9a11.1,11.1,0,0,0-2.657,0,2.864,2.864,0,0,1-1.16-.165,15.691,15.691,0,0,0-7.806-.444c-5.4,1.124-13.607,3.172-15.87,5.629-3.437,3.753-8.436,7.348-14.065,22.967l30.307,10.935-2.592,4.934L240.265,438.9s-.8,1.3-1.883,3h0c-1.432,2.206-3.287,5.092-4.526,6.674-2.184,2.814-1.561,11.716-1.561,11.716s-.465,4.218-2.027,5.786-1.26,7.333-1.26,7.333l-4.06,15.154s-3.753,3.437-3.753,5.013-2.965,5.937-2.965,5.937S213.7,506.991,218.207,505.9Z" transform="translate(-141.845 -125.661)" fill="#dfe5ee"/>
    <path id="Path_65" data-name="Path 65" d="M247.16,459.638h0a23.631,23.631,0,0,1,.48,2.614s12.339,28.9,13.9,30.622c.48.53,2.3,3.13,4.576,6.445l2.614,3.86c4.719,7.011,10.026,14.974,10.026,14.974l11.559,10.155s25.151,2.012,33.143-6.152c-.967-.673-1.583-1.031-1.583-1.031l-3.437-2.671c-1.776-2.994-8.558-5.915-15.433-8.2-6.331.043-11.508.559-11.508.559l-1.647-4.34-1.719-4.526-8.766-22.974s-5.636-29.054-7.512-30.465-1.432-5.779-1.432-5.779,3.437-12.339,2.184-14.058,2.034-14.38,2.034-14.38a12.97,12.97,0,0,0-1.5-3.5l-24.12,45.833S248.241,457.919,247.16,459.638Z" transform="translate(-150.632 -143.398)" opacity="0.1"/>
    <path id="Path_66" data-name="Path 66" d="M273.189,409.093s-3.28,12.654-2.027,14.373-2.191,14.058-2.191,14.058-.465,4.376,1.432,5.779,7.512,30.465,7.512,30.465l12.1,31.875s37.877-3.753,33.974,8.121-35.155,9.374-35.155,9.374l-11.558-10.155s-15.626-23.59-17.187-25.308-13.907-30.622-13.907-30.622-.623-5.779-3.28-8.751-.623-7.985-.623-7.985S239,402.526,242.438,398,269.608,395.5,273.189,409.093Z" transform="translate(-148.846 -139.152)" fill="#af8357"/>
    <path id="Path_67" data-name="Path 67" d="M437.36,584.07s-9.847,3.287-12.482,7.971S437.36,584.07,437.36,584.07Z" transform="translate(-200.991 -192.586)" opacity="0.1"/>
    <path id="Path_68" data-name="Path 68" d="M430.409,569.68c-.308.466-13.478,13.678-12.654,16.872S430.409,569.68,430.409,569.68Z" transform="translate(-199.046 -188.501)" opacity="0.1"/>
    <path id="Path_69" data-name="Path 69" d="M328.1,582.77s-14.688,6.925-15.941,9.94S328.1,582.77,328.1,582.77Z" transform="translate(-169.062 -192.217)" opacity="0.1"/>
    <path id="Path_70" data-name="Path 70" d="M327.116,595.2s-13.256,5.622-15.039,7.033S327.116,595.2,327.116,595.2Z" transform="translate(-169.021 -195.745)" opacity="0.1"/>
    <path id="Path_71" data-name="Path 71" d="M320.795,611.652s-5.872,4.376-9.109.938S320.795,611.652,320.795,611.652Z" transform="translate(-168.794 -200.166)" opacity="0.1"/>
    <path id="Path_72" data-name="Path 72" d="M345.235,452.74c-.315.473-19.844,35.621-25,38.278S345.235,452.74,345.235,452.74Z" transform="translate(-171.206 -155.306)" opacity="0.1"/>
    <path id="Path_73" data-name="Path 73" d="M345.164,471.29c0,.781-19.064,41.536-22.2,42.023S345.164,471.29,345.164,471.29Z" transform="translate(-172.073 -160.572)" opacity="0.1"/>
    <path id="Path_74" data-name="Path 74" d="M247.573,507.94s-9.2,19.658-12.776,20.811S247.573,507.94,247.573,507.94Z" transform="translate(-146.977 -170.975)" opacity="0.1"/>
    <path id="Path_75" data-name="Path 75" d="M248.506,495.72s-3.172,6.875-5.1,6.875S248.506,495.72,248.506,495.72Z" transform="translate(-149.471 -167.507)" opacity="0.1"/>
    <path id="Path_76" data-name="Path 76" d="M299.09,298.913a26.906,26.906,0,0,0,1.712,9.46,25.523,25.523,0,0,1,26.662-26.225c1.311.057,2.865.365,3.395,1.554a6.533,6.533,0,0,1,.322,1.977c.394,3.036,3.473,4.934,6.366,5.922s6.116,1.618,8.214,3.846c1.919,2.041,2.464,4.97,3.409,7.613a10.928,10.928,0,0,0,2.635,4.3,27.034,27.034,0,1,0-52.715-8.443Z" transform="translate(-165.372 -103.966)" opacity="0.1"/>
    <path id="Path_77" data-name="Path 77" d="M347.183,265.042c-2.22-3.015-6.159-4.06-9.582-5.579a30.4,30.4,0,0,1-17.037-20.7,10.67,10.67,0,0,0,1.046,13.306c-6.223-.423-13.1-1.139-17.316-5.729-.96,3.309,1.912,7.068.344,10.133-1.346,2.635-5.013,2.865-7.383,4.655-2.528,1.876-3.366,5.278-3.523,8.422s.172,6.367-.759,9.374c-.716,2.284-2.148,4.383-2.292,6.768a11.6,11.6,0,0,0,1.146,5.135,46.363,46.363,0,0,0,7.1,11.8,25.566,25.566,0,0,1,26.146-30.794c1.311.057,2.865.372,3.395,1.561a6.445,6.445,0,0,1,.322,1.977c.394,3.029,3.473,4.927,6.366,5.915s6.116,1.626,8.214,3.846c1.919,2.041,2.464,4.97,3.409,7.613s2.771,5.407,5.557,5.729c.637-3.924,1.282-7.878.888-11.859-.43-4.261-3.294-6.674-4.3-10.384C347.842,272.34,349.9,268.738,347.183,265.042Z" transform="translate(-162.985 -94.566)" fill="#311f2d"/>
    <path id="Path_78" data-name="Path 78" d="M253.113,380.337l-9.84,5.937s-2.814,9.525-5.013,10.742c0,0,19.687-10.935,34.525,14.215,0,0-.465-3.28,1.561-4.841s1.561-8.279,1.561-8.279a28.31,28.31,0,0,0,1.432-3.287C278.7,391.422,271.36,371.743,253.113,380.337Z" transform="translate(-148.105 -134.143)" opacity="0.1"/>
    <path id="Path_79" data-name="Path 79" d="M252.63,379.457l-9.847,5.937s-2.814,9.532-5.013,10.785c0,0,19.687-10.943,34.525,14.215,0,0-.465-3.28,1.568-4.841s1.561-8.286,1.561-8.286a26.808,26.808,0,0,0,1.432-3.28C278.246,390.55,270.877,370.863,252.63,379.457Z" transform="translate(-147.966 -133.893)" fill="#dfe5ee"/>
    <g id="Group_1" data-name="Group 1" transform="translate(127.694 147.424)" opacity="0.1">
      <path id="Path_80" data-name="Path 80" d="M310.426,257.218c-.036-2.549-1.554-5.357-.816-7.878l.129.136C309.918,252.083,311.365,254.826,310.426,257.218Z" transform="translate(-295.996 -244.993)"/>
      <path id="Path_81" data-name="Path 81" d="M295.167,278.622c-.15,2.865.107,5.729-.537,8.515.236-2.184.107-4.433.222-6.639a18.389,18.389,0,0,1,.408-3.108C295.217,277.827,295.181,278.214,295.167,278.622Z" transform="translate(-291.801 -252.955)"/>
      <path id="Path_82" data-name="Path 82" d="M290.68,303.606a7.77,7.77,0,0,1,.308-1.676,11.938,11.938,0,0,0,1.153,4.934,46.249,46.249,0,0,0,6.374,10.885,24.789,24.789,0,0,0,.415,2.793,46.363,46.363,0,0,1-7.1-11.8A11.6,11.6,0,0,1,290.68,303.606Z" transform="translate(-290.679 -259.921)"/>
      <path id="Path_83" data-name="Path 83" d="M333.038,251.47c-.6-.036-1.217-.079-1.826-.129a11.007,11.007,0,0,1-1.038-8.071A10.556,10.556,0,0,0,333.038,251.47Z" transform="translate(-301.793 -243.27)"/>
      <path id="Path_84" data-name="Path 84" d="M308.039,291.278a25.981,25.981,0,0,1,20.618-8.995c1.311.064,2.865.372,3.4,1.561a6.717,6.717,0,0,1,.322,1.977c.394,3.029,3.466,4.934,6.366,5.915s6.109,1.626,8.207,3.853c1.926,2.041,2.471,4.97,3.416,7.605s2.764,5.4,5.543,5.729l-.3,1.876c-2.786-.3-4.612-3.065-5.557-5.729s-1.49-5.572-3.409-7.613c-2.1-2.22-5.321-2.865-8.214-3.846s-5.973-2.865-6.366-5.915a6.445,6.445,0,0,0-.322-1.977c-.559-1.189-2.084-1.5-3.394-1.561a25.437,25.437,0,0,0-26.139,20.474A25.867,25.867,0,0,1,308.039,291.278Z" transform="translate(-293.952 -254.339)"/>
    </g>
    <path id="Path_85" data-name="Path 85" d="M421.172,339.65v28.023l-26.812-2.148V339.65Z" transform="translate(-111.943 -96.414)" fill="#3a3768"/>
    <path id="Path_86" data-name="Path 86" d="M421.172,374.728v2.292l-26.812-2.148V372.58Z" transform="translate(-111.943 -105.761)" opacity="0.1"/>
    <path id="Path_87" data-name="Path 87" d="M539.078,416.53l-41.708-2.148h0a4.082,4.082,0,0,1,4.082-4.082L535,412.448A4.082,4.082,0,0,1,539.078,416.53Z" transform="translate(-221.656 -143.259)" fill="#3a3768"/>
    <path id="Path_88" data-name="Path 88" d="M567.816,348.85l-144.266-4.3a4.383,4.383,0,0,1-4.39-4.39V254.943a4.383,4.383,0,0,1,4.39-4.383l144.266,4.3a4.39,4.39,0,0,1,4.39,4.383V344.46A4.39,4.39,0,0,1,567.816,348.85Z" transform="translate(-199.456 -97.915)" fill="#3a3768"/>
    <path id="Path_89" data-name="Path 89" d="M457.569,309.561l-146.279-4.3V228.48l146.279,4.3Z" transform="translate(-88.363 -64.857)" fill="#a8dadc"/>
    <ellipse id="Ellipse_11" data-name="Ellipse 11" cx="1.289" cy="1.275" rx="1.289" ry="1.275" transform="translate(294.777 158.381)" fill="#fff"/>
    <path id="Path_90" data-name="Path 90" d="M421.166,346.89l-26.726-.43v.91h26.726Z" transform="translate(-111.966 -98.347)" opacity="0.1"/>
    <path id="Path_91" data-name="Path 91" d="M359.267,383.88l36.6,2.4-7.8,11.208-40.24-4.3Z" transform="translate(-98.735 -108.969)" opacity="0.1"/>
    <path id="Path_92" data-name="Path 92" d="M358.267,382.88l36.6,2.4-7.8,11.208-40.24-4.3Z" transform="translate(-98.451 -108.685)" fill="#3a3768"/>
    <path id="Path_93" data-name="Path 93" d="M361.106,384.04l31.918,1.948-6.8,9.131-35.1-3.5Z" transform="translate(-99.672 -109.014)" fill="#d5e1f4"/>
    <ellipse id="Ellipse_12" data-name="Ellipse 12" cx="45.976" cy="7.054" rx="45.976" ry="7.054" transform="translate(586.683 561.818)" fill="#e63946" opacity="0.1"/>
    <path id="Path_94" data-name="Path 94" d="M1026.309,599.29s5.106,6.682-2.363,16.772-13.607,18.62-11.136,24.893c0,0,11.272-18.741,20.439-19S1036.421,610.541,1026.309,599.29Z" transform="translate(-367.811 -196.906)" fill="#57a764"/>
    <path id="Path_95" data-name="Path 95" d="M1026.421,599.29a8.389,8.389,0,0,1,1.038,2.091c8.952,10.52,13.721,20.331,5.12,20.575-8.014.229-17.624,14.552-19.93,18.176a8.525,8.525,0,0,0,.272.824s11.272-18.741,20.439-19S1036.533,610.541,1026.421,599.29Z" transform="translate(-367.924 -196.906)" opacity="0.1"/>
    <path id="Path_96" data-name="Path 96" d="M1044.672,610.578c0,2.349-.265,4.3-.587,4.3s-.594-1.912-.594-4.3.329-1.246.659-1.246S1044.672,608.229,1044.672,610.578Z" transform="translate(-376.678 -199.68)" fill="#ffd037"/>
    <path id="Path_97" data-name="Path 97" d="M1048.094,614.461c-2.062,1.124-3.867,1.8-4.018,1.518s1.389-1.432,3.452-2.557,1.253-.3,1.432,0S1050.163,613.337,1048.094,614.461Z" transform="translate(-376.841 -200.755)" fill="#ffd037"/>
    <path id="Path_98" data-name="Path 98" d="M989.644,599.29s-5.113,6.682,2.356,16.772,13.607,18.62,11.136,24.893c0,0-11.265-18.741-20.438-19S979.553,610.541,989.644,599.29Z" transform="translate(-358.137 -196.906)" fill="#57a764"/>
    <path id="Path_99" data-name="Path 99" d="M989.644,599.29a8.231,8.231,0,0,0-1.046,2.091c-8.945,10.52-13.714,20.331-5.113,20.575,8.014.229,17.624,14.552,19.923,18.176a6.928,6.928,0,0,1-.272.823s-11.265-18.741-20.438-19S979.553,610.541,989.644,599.29Z" transform="translate(-358.137 -196.906)" opacity="0.1"/>
    <path id="Path_100" data-name="Path 100" d="M980.93,610.578c0,2.349.258,4.3.587,4.3s.587-1.912.587-4.3-.329-1.246-.652-1.246S980.93,608.229,980.93,610.578Z" transform="translate(-358.92 -199.68)" fill="#ffd037"/>
    <path id="Path_101" data-name="Path 101" d="M975.864,614.461c2.07,1.124,3.867,1.8,4.025,1.518s-1.432-1.432-3.459-2.557-1.246-.3-1.432,0S973.8,613.337,975.864,614.461Z" transform="translate(-357.119 -200.755)" fill="#ffd037"/>
    <ellipse id="Ellipse_13" data-name="Ellipse 13" cx="53.424" cy="8.2" rx="53.424" ry="8.2" transform="translate(591.574 478.767)" fill="#e63946" opacity="0.1"/>
    <path id="Path_102" data-name="Path 102" d="M1029.628,643.652l-.258,2.091-.358,2.943-.151,1.232-.358,2.943-.151,1.232-.358,2.943-4.089,33.515c-.365,2.993-5.256,5.321-11.157,5.321H991.508c-5.9,0-10.778-2.328-11.143-5.321l-4.1-33.515-.358-2.943-.15-1.232-.365-2.943-.15-1.232-.358-2.943-.251-2.091c-.208-1.69,2.435-3.122,5.772-3.122h43.448C1027.171,640.53,1029.835,641.962,1029.628,643.652Z" transform="translate(-357.13 -208.612)" fill="#65617d"/>
    <path id="Path_103" data-name="Path 103" d="M917.107,610.4l-.358,2.943H862.988l-.358-2.943Z" transform="translate(-244.866 -173.269)" fill="#9d9cb5"/>
    <path id="Path_104" data-name="Path 104" d="M916.8,616.23l-.358,2.95H863.7l-.365-2.95Z" transform="translate(-245.065 -174.924)" fill="#9d9cb5"/>
    <path id="Path_105" data-name="Path 105" d="M916.493,622.06l-.358,2.951H864.408l-.358-2.951Z" transform="translate(-245.27 -176.579)" fill="#9d9cb5"/>
  </g>
</svg>
