<svg xmlns="http://www.w3.org/2000/svg" xmlns:xlink="http://www.w3.org/1999/xlink" width="547.099" height="468.073" viewBox="0 0 547.099 468.073">
  <defs>
    <linearGradient id="linear-gradient" x1="0.444" y1="2.08" x2="0.444" y2="0.698" gradientUnits="objectBoundingBox">
      <stop offset="0" stop-color="gray" stop-opacity="0.251"/>
      <stop offset="0.54" stop-color="gray" stop-opacity="0.122"/>
      <stop offset="1" stop-color="gray" stop-opacity="0.102"/>
    </linearGradient>
    <linearGradient id="linear-gradient-2" x1="0.027" y1="4.202" x2="0.027" y2="3.205" xlink:href="#linear-gradient"/>
    <linearGradient id="linear-gradient-3" x1="0.684" y1="0.372" x2="0.684" y2="-0.628" xlink:href="#linear-gradient"/>
    <linearGradient id="linear-gradient-4" x1="1.326" y1="-2.088" x2="1.326" y2="-3.089" xlink:href="#linear-gradient"/>
    <linearGradient id="linear-gradient-5" x1="0.5" y1="1" x2="0.5" y2="0" xlink:href="#linear-gradient"/>
    <linearGradient id="linear-gradient-6" x1="-8.568" y1="1" x2="-8.568" y2="0" xlink:href="#linear-gradient"/>
    <linearGradient id="linear-gradient-7" x1="0.5" y1="1" x2="0.5" y2="0" xlink:href="#linear-gradient"/>
  </defs>
  <g id="work-signup" transform="translate(-0.328 -0.023)">
    <g id="Group_14" data-name="Group 14" transform="translate(251.168 0.023)" opacity="0.5">
      <rect id="Rectangle_47" data-name="Rectangle 47" width="342.559" height="247.928" transform="translate(0 338.726) rotate(-81.42)" fill="url(#linear-gradient)"/>
    </g>
    <rect id="Rectangle_48" data-name="Rectangle 48" width="334.987" height="241.619" transform="translate(255.043 334.228) rotate(-81.42)" fill="#f5f5f5"/>
    <rect id="Rectangle_49" data-name="Rectangle 49" width="174.387" height="10.57" transform="translate(315.161 151.439) rotate(8.58)" fill="#e0e0e0"/>
    <rect id="Rectangle_50" data-name="Rectangle 50" width="174.387" height="10.57" transform="translate(311.22 177.563) rotate(8.58)" fill="#e0e0e0"/>
    <rect id="Rectangle_51" data-name="Rectangle 51" width="89.838" height="10.57" transform="translate(411.375 80.446) rotate(8.58)" fill="#e0e0e0"/>
    <rect id="Rectangle_52" data-name="Rectangle 52" width="73.985" height="10.57" transform="translate(415.274 107.759) rotate(8.58)" fill="#e63946"/>
    <rect id="Rectangle_53" data-name="Rectangle 53" width="153.253" height="10.57" transform="translate(307.274 203.691) rotate(8.58)" fill="#e0e0e0"/>
    <rect id="Rectangle_54" data-name="Rectangle 54" width="132.112" height="10.57" transform="translate(303.329 229.819) rotate(8.58)" fill="#e0e0e0"/>
    <rect id="Rectangle_55" data-name="Rectangle 55" width="116.26" height="10.57" transform="translate(299.387 255.945) rotate(8.58)" fill="#e0e0e0"/>
    <rect id="Rectangle_56" data-name="Rectangle 56" width="147.964" height="10.57" transform="translate(295.446 282.073) rotate(8.58)" fill="#e0e0e0"/>
    <rect id="Rectangle_57" data-name="Rectangle 57" width="58.127" height="10.57" transform="translate(291.509 308.197) rotate(8.58)" fill="#e63946"/>
    <g id="Group_15" data-name="Group 15" transform="translate(324.387 54.289)" opacity="0.5">
      <path id="Path_150" data-name="Path 150" d="M751.058,203.3a35.272,35.272,0,1,0-58.7,20.752v.156a12.07,12.07,0,0,0,3.573,3.129l.069-.15c1.421,1.646,7.96,4.925,15.865,6.1h.175a32.274,32.274,0,0,0,15.733-1.17s.056-.088.15-.25a12.567,12.567,0,0,0,3.63-1.759l.113-.388A35.234,35.234,0,0,0,751.058,203.3Z" transform="translate(-680.908 -162.764)" fill="url(#linear-gradient-2)"/>
    </g>
    <circle id="Ellipse_53" data-name="Ellipse 53" cx="34.214" cy="34.214" r="34.214" transform="translate(320.568 117.001) rotate(-81.42)" fill="#f5f5f5"/>
    <path id="Path_151" data-name="Path 151" d="M707.172,235.078s-8.136-.557-8.242,14.45a11.71,11.71,0,0,0,3.467,3.023l6.847-14.663Z" transform="translate(-363.264 -135.532)" fill="#fda57d"/>
    <path id="Path_152" data-name="Path 152" d="M752.22,241.39s7.961,1.877,3.617,16.24a11.709,11.709,0,0,1-4.205,1.877L749.41,243.48Z" transform="translate(-382.152 -137.895)" fill="#fda57d"/>
    <path id="Path_153" data-name="Path 153" d="M714,196.72s-5.52,10.583-7.454,9.218c0,0,17.561,20.483,38.019,5.733a53.758,53.758,0,0,0-6.146-11.265Z" transform="translate(-366.115 -121.18)" fill="#333"/>
    <circle id="Ellipse_54" data-name="Ellipse 54" cx="15.164" cy="15.164" r="15.164" transform="translate(343.764 89.19) rotate(-81.42)" fill="#333"/>
    <path id="Path_154" data-name="Path 154" d="M734.884,238.993l-26.16-3.943-4.018,10.095s-2.165,4.625-.7,7.028,17.392,9.757,30.666,5.007a13.8,13.8,0,0,0,1.665-8.668c-.657-5.094-.294-.4-.294-.4Z" transform="translate(-364.973 -135.522)" opacity="0.1"/>
    <path id="Path_155" data-name="Path 155" d="M735.448,239.083l-26.16-3.943-4.012,10.088s-2.165,4.625-.7,7.028,17.392,9.757,30.666,5.007a13.8,13.8,0,0,0,1.665-8.668c-.657-5.094-.294-.4-.294-.4Z" transform="translate(-365.186 -135.556)" opacity="0.1"/>
    <path id="Path_156" data-name="Path 156" d="M735.134,239.033l-26.16-3.943-4.018,10.095s-2.165,4.625-.7,7.028,17.392,9.757,30.666,5.007a13.8,13.8,0,0,0,1.665-8.668c-.657-5.094-.294-.4-.294-.4Z" transform="translate(-365.066 -135.537)" fill="#fdd835"/>
    <path id="Path_157" data-name="Path 157" d="M.006,0H10.589V9.55a4.212,4.212,0,0,1-4.212,4.212H4.212A4.212,4.212,0,0,1,0,9.55V0Z" transform="translate(353.229 92.107) rotate(8.58)" opacity="0.1"/>
    <path id="Path_158" data-name="Path 158" d="M0,0H10.583V9.55a4.212,4.212,0,0,1-4.212,4.212H4.212A4.212,4.212,0,0,1,0,9.55Z" transform="translate(353.286 91.721) rotate(8.58)" fill="#fda57d"/>
    <path id="Path_159" data-name="Path 159" d="M726.77,224.192a15.227,15.227,0,0,0,10.458,1.608l.194-1.283-10.464-1.577Z" transform="translate(-373.681 -130.991)" opacity="0.1"/>
    <circle id="Ellipse_55" data-name="Ellipse 55" cx="15.164" cy="15.164" r="15.164" transform="translate(343.273 92.442) rotate(-81.42)" fill="#fda57d"/>
    <path id="Path_160" data-name="Path 160" d="M717.07,185.691,745.67,190s-.7-11.891-11.622-12.811S717.07,185.691,717.07,185.691Z" transform="translate(-370.051 -113.85)" fill="#333"/>
    <ellipse id="Ellipse_56" data-name="Ellipse 56" cx="2.647" cy="1.408" rx="2.647" ry="1.408" transform="translate(344.15 79.257) rotate(-81.42)" fill="#fda57d"/>
    <ellipse id="Ellipse_57" data-name="Ellipse 57" cx="2.647" cy="1.408" rx="2.647" ry="1.408" transform="translate(373.447 83.68) rotate(-81.42)" fill="#fda57d"/>
    <path id="Path_161" data-name="Path 161" d="M717,186.311l28.6,4.312s-.7-11.891-11.622-12.811S717,186.311,717,186.311Z" transform="translate(-370.025 -114.082)" opacity="0.1"/>
    <g id="Group_16" data-name="Group 16" transform="translate(0.328 48.692)" opacity="0.5">
      <rect id="Rectangle_58" data-name="Rectangle 58" width="248.633" height="343.534" transform="matrix(0.987, -0.16, 0.16, 0.987, 0, 39.668)" fill="url(#linear-gradient-3)"/>
    </g>
    <rect id="Rectangle_59" data-name="Rectangle 59" width="241.619" height="334.987" transform="translate(3.65 89.76) rotate(-9.31)" fill="#f5f5f5"/>
    <rect id="Rectangle_60" data-name="Rectangle 60" width="174.387" height="10.57" transform="translate(58.945 227.886) rotate(-9.31)" fill="#e0e0e0"/>
    <rect id="Rectangle_61" data-name="Rectangle 61" width="174.387" height="10.57" transform="translate(63.219 253.962) rotate(-9.31)" fill="#e0e0e0"/>
    <rect id="Rectangle_62" data-name="Rectangle 62" width="89.838" height="10.57" transform="translate(128.708 130.77) rotate(-9.31)" fill="#e0e0e0"/>
    <rect id="Rectangle_63" data-name="Rectangle 63" width="73.985" height="10.57" transform="translate(140.801 155.565) rotate(-9.31)" fill="#e63946"/>
    <rect id="Rectangle_64" data-name="Rectangle 64" width="153.253" height="10.57" transform="translate(67.494 280.037) rotate(-9.31)" fill="#e0e0e0"/>
    <rect id="Rectangle_65" data-name="Rectangle 65" width="132.112" height="10.57" transform="translate(71.767 306.106) rotate(-9.31)" fill="#e0e0e0"/>
    <rect id="Rectangle_66" data-name="Rectangle 66" width="116.26" height="10.57" transform="translate(76.042 332.185) rotate(-9.31)" fill="#e0e0e0"/>
    <rect id="Rectangle_67" data-name="Rectangle 67" width="147.964" height="10.57" transform="translate(80.317 358.254) rotate(-9.31)" fill="#e0e0e0"/>
    <rect id="Rectangle_68" data-name="Rectangle 68" width="58.127" height="10.57" transform="translate(84.596 384.332) rotate(-9.31)" fill="#e63946"/>
    <g id="Group_17" data-name="Group 17" transform="translate(48.26 116.976)" opacity="0.5">
      <path id="Path_162" data-name="Path 162" d="M311.734,293.32a36.26,36.26,0,1,0-50.88,38.839l.05.156a12.409,12.409,0,0,0,4.481,1.915v-.169c1.909,1.164,9.344,2.309,17.448.958h.175a33.161,33.161,0,0,0,15.02-6.114,1.025,1.025,0,0,1,.063-.288,12.916,12.916,0,0,0,3-2.866v-.413A36.223,36.223,0,0,0,311.734,293.32Z" transform="translate(-239.688 -262.931)" fill="url(#linear-gradient-4)"/>
    </g>
    <circle id="Ellipse_58" data-name="Ellipse 58" cx="35.171" cy="35.171" r="35.171" transform="translate(44.135 124.201) rotate(-9.31)" fill="#f5f5f5"/>
    <path id="Path_163" data-name="Path 163" d="M274.242,346.48s-8.136,2.034-3.5,16.741a12.04,12.04,0,0,0,4.35,1.878l2.071-16.509Z" transform="translate(-202.512 -177.216)" fill="#4d8af0"/>
    <path id="Path_164" data-name="Path 164" d="M318.817,339.447s8.38-.682,8.661,14.751a12.041,12.041,0,0,1-3.523,3.129l-7.235-14.982Z" transform="translate(-220.251 -174.583)" fill="#4d8af0"/>
    <circle id="Ellipse_59" data-name="Ellipse 59" cx="15.589" cy="15.589" r="15.589" transform="translate(63.247 128.395) rotate(-9.31)" fill="#333"/>
    <path id="Path_165" data-name="Path 165" d="M303.28,339.49l-26.835,4.381-.745,11.146s-.626,5.213,1.533,7.1,20.1,4.055,31.548-4.806a14.188,14.188,0,0,0-1.108-9.006c-2.253-4.775-.419-.3-.419-.3Z" transform="translate(-204.871 -174.601)" fill="#4d8af0"/>
    <path id="Path_166" data-name="Path 166" d="M303.85,339.4l-26.835,4.381-.745,11.146s-.626,5.213,1.533,7.1,20.1,4.055,31.548-4.806a14.188,14.188,0,0,0-1.108-9.006c-2.253-4.775-.419-.3-.419-.3Z" transform="translate(-205.084 -174.567)" fill="#4d8af0"/>
    <path id="Path_167" data-name="Path 167" d="M303.53,339.45l-26.835,4.381L275.95,355s-.626,5.213,1.533,7.1,20.1,4.055,31.548-4.806a14.188,14.188,0,0,0-1.108-9.006c-2.253-4.775-.419-.3-.419-.3Z" transform="translate(-204.964 -174.586)" fill="#4d8af0"/>
    <path id="Path_168" data-name="Path 168" d="M.006,0H10.883V9.932a4.212,4.212,0,0,1-4.212,4.212H4.212A4.212,4.212,0,0,1,0,9.932V0Z" transform="translate(78.505 159.002) rotate(-9.31)" opacity="0.1"/>
    <path id="Path_169" data-name="Path 169" d="M.006,0H10.883V9.932a4.212,4.212,0,0,1-4.212,4.212H4.212A4.212,4.212,0,0,1,0,9.932V0Z" transform="translate(78.441 158.605) rotate(-9.31)" fill="#fda57d"/>
    <path id="Path_170" data-name="Path 170" d="M288.213,330.1a15.646,15.646,0,0,0,10.739-1.727l-.219-1.32L288,328.815Z" transform="translate(-209.505 -169.946)" opacity="0.1"/>
    <circle id="Ellipse_60" data-name="Ellipse 60" cx="15.589" cy="15.589" r="15.589" transform="translate(63.799 131.736) rotate(-9.31)" fill="#fda57d"/>
    <path id="Path_171" data-name="Path 171" d="M268.18,293.822l29.345-4.806s-4.45-11.44-15.414-8.862S268.18,293.822,268.18,293.822Z" transform="translate(-202.089 -152.257)" opacity="0.1"/>
    <path id="Path_172" data-name="Path 172" d="M268.07,293.188l29.37-4.813s-4.45-11.44-15.414-8.862S268.07,293.188,268.07,293.188Z" transform="translate(-202.048 -152.018)" fill="#333"/>
    <ellipse id="Ellipse_61" data-name="Ellipse 61" cx="1.456" cy="2.73" rx="1.456" ry="2.73" transform="matrix(0.987, -0.16, 0.16, 0.987, 64.842, 144.861)" fill="#fda57d"/>
    <ellipse id="Ellipse_62" data-name="Ellipse 62" cx="1.452" cy="2.722" rx="1.452" ry="2.722" transform="translate(94.709 139.028) rotate(-9.31)" fill="#fda57d"/>
    <g id="Group_18" data-name="Group 18" transform="translate(177 103.564)" opacity="0.5">
      <rect id="Rectangle_69" data-name="Rectangle 69" width="247.928" height="342.559" fill="url(#linear-gradient-5)"/>
    </g>
    <rect id="Rectangle_70" data-name="Rectangle 70" width="241.619" height="334.987" transform="translate(180.155 106.086)" fill="#fff"/>
    <g id="Group_19" data-name="Group 19" transform="translate(212.422 145.658)" opacity="0.5">
      <path id="Path_173" data-name="Path 173" d="M502,345.834a37.074,37.074,0,1,1,57.758,30.772v.163a12.693,12.693,0,0,1-4.205,2.679l-.05-.163c-1.734,1.489-9.043,3.874-17.442,3.849h-.182a34.073,34.073,0,0,1-16.171-3.686s-.044-.1-.113-.282a13.2,13.2,0,0,1-3.5-2.4l-.056-.419A37.036,37.036,0,0,1,502,345.834Z" transform="translate(-502 -308.761)" fill="url(#linear-gradient-6)"/>
    </g>
    <circle id="Ellipse_63" data-name="Ellipse 63" cx="35.96" cy="35.96" r="35.96" transform="translate(213.53 146.771)" fill="#f5f5f5"/>
    <path id="Path_174" data-name="Path 174" d="M534.694,389.89s-8.568.695-6.3,16.34a12.31,12.31,0,0,0,4.08,2.6l4.819-16.315Z" transform="translate(-299.31 -193.459)" fill="#be7c5e"/>
    <path id="Path_175" data-name="Path 175" d="M581.578,389.89s8.568.695,6.3,16.34a12.31,12.31,0,0,1-4.08,2.6L579,392.462Z" transform="translate(-318.389 -193.459)" fill="#be7c5e"/>
    <path id="Path_176" data-name="Path 176" d="M537.884,349s-.657,1.921-1.6,4.143c-2.04,4.856.288,23.519,5.169,25.509,5.476,2.234,12.679,3.661,20.158.932,6.5-2.372,8.505-23.612,3.911-28.788-.538-.626-1.1-1.208-1.69-1.8Z" transform="translate(-302.131 -178.159)" fill="#333"/>
    <circle id="Ellipse_64" data-name="Ellipse 64" cx="15.94" cy="15.94" r="15.94" transform="translate(233.575 153.793)" fill="#333"/>
    <path id="Path_177" data-name="Path 177" d="M564.335,389.89H536.53l-2.6,11.121s-1.527,5.151.369,7.416,19.607,7.416,32.624.369a14.507,14.507,0,0,0,.369-9.269c-1.483-5.188-.369-.369-.369-.369Z" transform="translate(-301.309 -193.459)" opacity="0.1"/>
    <path id="Path_178" data-name="Path 178" d="M564.918,389.89H537.1l-2.6,11.121s-1.527,5.151.369,7.416,19.607,7.416,32.624.369a14.507,14.507,0,0,0,.369-9.268c-1.483-5.188-.369-.369-.369-.369Z" transform="translate(-301.522 -193.459)" opacity="0.1"/>
    <path id="Path_179" data-name="Path 179" d="M564.6,389.89H536.79l-2.6,11.121s-1.527,5.151.369,7.416,19.607,7.416,32.624.369a14.507,14.507,0,0,0,.369-9.269c-1.483-5.188-.369-.369-.369-.369Z" transform="translate(-301.406 -193.459)" fill="#3ad29f"/>
    <path id="Path_180" data-name="Path 180" d="M389.546,299.11h11.121v10.251a4.212,4.212,0,0,1-4.212,4.212h-2.7a4.212,4.212,0,0,1-4.212-4.212V299.11Z" transform="translate(-145.632 -111.91)" opacity="0.1"/>
    <path id="Path_181" data-name="Path 181" d="M389.546,298.45h11.121V308.7a4.212,4.212,0,0,1-4.212,4.212h-2.7a4.212,4.212,0,0,1-4.212-4.212V298.45Z" transform="translate(-145.632 -111.663)" fill="#be7c5e"/>
    <path id="Path_182" data-name="Path 182" d="M552.35,376.184a16.009,16.009,0,0,0,11.121,0V374.82H552.35Z" transform="translate(-308.417 -187.82)" opacity="0.1"/>
    <circle id="Ellipse_65" data-name="Ellipse 65" cx="15.94" cy="15.94" r="15.94" transform="translate(233.575 157.254)" fill="#be7c5e"/>
    <path id="Path_183" data-name="Path 183" d="M536.91,336.2h30.4s-2.6-12.279-14.087-11.49S536.91,336.2,536.91,336.2Z" transform="translate(-302.64 -169.056)" fill="#333"/>
    <ellipse id="Ellipse_66" data-name="Ellipse 66" cx="1.483" cy="2.779" rx="1.483" ry="2.779" transform="translate(232.424 169.739)" fill="#be7c5e"/>
    <ellipse id="Ellipse_67" data-name="Ellipse 67" cx="1.483" cy="2.779" rx="1.483" ry="2.779" transform="translate(263.565 169.739)" fill="#be7c5e"/>
    <path id="Path_184" data-name="Path 184" d="M536.91,336.848h30.4s-2.6-12.279-14.087-11.49S536.91,336.848,536.91,336.848Z" transform="translate(-302.64 -169.3)" opacity="0.1"/>
    <rect id="Rectangle_71" data-name="Rectangle 71" width="174.387" height="10.57" transform="translate(212.372 251.341)" fill="#e0e0e0"/>
    <rect id="Rectangle_72" data-name="Rectangle 72" width="174.387" height="10.57" transform="translate(212.372 277.763)" fill="#e0e0e0"/>
    <rect id="Rectangle_73" data-name="Rectangle 73" width="89.838" height="10.57" transform="translate(296.928 166.792)" fill="#e0e0e0"/>
    <rect id="Rectangle_74" data-name="Rectangle 74" width="73.985" height="10.57" transform="translate(304.851 193.214)" fill="#e63946"/>
    <rect id="Rectangle_75" data-name="Rectangle 75" width="153.253" height="10.57" transform="translate(212.372 304.186)" fill="#e0e0e0"/>
    <rect id="Rectangle_76" data-name="Rectangle 76" width="132.112" height="10.57" transform="translate(212.372 330.608)" fill="#e0e0e0"/>
    <rect id="Rectangle_77" data-name="Rectangle 77" width="116.26" height="10.57" transform="translate(212.372 357.037)" fill="#e0e0e0"/>
    <rect id="Rectangle_78" data-name="Rectangle 78" width="147.964" height="10.57" transform="translate(212.372 383.459)" fill="#e0e0e0"/>
    <rect id="Rectangle_79" data-name="Rectangle 79" width="58.127" height="10.57" transform="translate(212.372 409.882)" fill="#e63946"/>
    <g id="Group_20" data-name="Group 20" transform="translate(355.392 362.469)" opacity="0.5">
      <circle id="Ellipse_68" data-name="Ellipse 68" cx="52.814" cy="52.814" r="52.814" fill="url(#linear-gradient-7)"/>
    </g>
    <circle id="Ellipse_69" data-name="Ellipse 69" cx="49.703" cy="49.703" r="49.703" transform="translate(358.503 365.579)" fill="#69f0ae"/>
    <path id="Path_185" data-name="Path 185" d="M612.956,639.961l18.637,17.085L658,618.22l9.325,7.767-35.728,46.593-26.4-29.508Z" transform="translate(-226.323 -231.312)" fill="#fff"/>
  </g>
</svg>
